<?xml version="1.0" standalone="no"?>
<!DOCTYPE svg PUBLIC "-//W3C//DTD SVG 20010904//EN"
 "http://www.w3.org/TR/2001/REC-SVG-20010904/DTD/svg10.dtd">
<svg version="1.0" xmlns="http://www.w3.org/2000/svg"
 width="180.000000pt" height="180.000000pt" viewBox="0 0 180.000000 180.000000"
 preserveAspectRatio="xMidYMid meet">
<metadata>
Created by potrace 1.14, written by Peter Selinger 2001-2017
</metadata>
<g transform="translate(0.000000,180.000000) scale(0.100000,-0.100000)"
fill="#000000" stroke="none">
<path d="M695 1445 c-138 -26 -241 -116 -292 -255 -17 -46 -21 -82 -22 -223
-1 -93 -4 -174 -6 -180 -2 -7 -7 -30 -10 -52 -4 -22 -10 -61 -14 -86 -28 -169
70 -300 224 -301 36 0 72 9 124 32 114 49 248 48 347 -3 138 -71 311 -13 380
130 27 54 27 59 29 257 1 233 -6 299 -40 373 -89 196 -465 357 -720 308z m278
-54 c152 -36 313 -126 370 -207 66 -94 70 -115 72 -364 3 -266 -3 -297 -70
-363 -77 -78 -180 -93 -288 -43 -119 54 -257 54 -374 -1 -77 -36 -144 -36
-204 -1 -87 51 -111 140 -80 294 12 56 18 141 20 247 2 190 15 248 71 323 98
131 258 169 483 115z"/>
<path d="M720 1301 c-96 -29 -160 -107 -160 -192 0 -32 0 -32 -21 -13 -12 10
-27 31 -35 46 -16 32 -44 37 -44 10 0 -24 49 -89 74 -98 24 -8 18 -38 -35
-155 -53 -117 -57 -169 -16 -205 59 -51 147 -15 147 59 0 22 -6 37 -15 41 -33
12 -9 86 48 151 33 38 36 39 53 24 11 -9 27 -15 36 -14 14 3 16 -2 11 -28 -9
-51 -40 -134 -67 -184 -43 -76 -29 -113 41 -113 47 0 74 22 111 90 20 36 43
70 51 77 11 8 61 12 154 13 157 0 161 -2 132 -76 -29 -77 0 -117 72 -99 46 11
61 33 94 138 37 118 38 163 7 218 -19 34 -37 47 -108 82 -107 51 -166 87 -256
154 -38 29 -90 59 -113 68 -46 16 -119 18 -161 6z m172 -52 c16 -8 65 -41 110
-74 45 -33 132 -85 192 -115 164 -82 174 -104 121 -277 -33 -105 -38 -113 -77
-113 -33 0 -33 -2 -6 89 12 42 12 44 -14 66 -26 22 -34 23 -170 22 -171 -2
-181 -7 -228 -99 -18 -35 -37 -66 -44 -70 -16 -11 -66 -10 -66 1 0 5 18 46 39
90 23 48 44 111 51 154 7 39 21 88 31 107 24 44 24 50 -1 50 -11 0 -20 -6 -20
-14 0 -7 -15 -28 -32 -47 l-33 -34 -3 25 c-9 61 -53 68 -75 13 -8 -21 -25 -47
-37 -58 -25 -22 -70 -110 -70 -137 0 -10 -9 -27 -20 -38 -11 -11 -20 -27 -20
-35 0 -8 9 -15 20 -15 11 0 20 7 20 15 0 15 21 21 33 9 9 -10 -14 -52 -32 -57
-29 -7 -60 11 -67 39 -5 19 2 49 26 103 17 42 41 100 53 129 16 42 24 52 39
49 14 -4 18 1 18 19 0 13 -3 23 -7 23 -26 -4 -30 4 -26 44 7 56 26 90 65 118
64 46 163 54 230 18z"/>
<path d="M706 1162 c-2 -4 -1 -14 4 -22 7 -11 12 -12 21 -3 6 6 8 16 5 22 -8
13 -23 14 -30 3z"/>
<path d="M954 1092 c-11 -7 -12 -127 -2 -138 17 -16 28 13 28 71 0 63 -7 80
-26 67z"/>
<path d="M1070 991 c0 -62 2 -71 18 -71 16 0 19 8 18 67 -1 56 -4 68 -18 71
-16 3 -18 -5 -18 -67z"/>
<path d="M1210 920 c0 -63 2 -70 20 -70 18 0 20 7 20 70 0 63 -2 70 -20 70
-18 0 -20 -7 -20 -70z"/>
<path d="M910 696 c0 -21 47 -54 87 -62 39 -7 102 16 121 46 17 28 -13 34 -48
8 -33 -24 -89 -21 -120 7 -21 19 -40 19 -40 1z"/>
<path d="M1253 612 c-29 -18 34 -56 78 -47 35 8 57 40 33 49 -8 3 -24 0 -34
-7 -16 -9 -24 -9 -40 1 -23 14 -22 14 -37 4z"/>
<path d="M740 580 c-22 -14 7 -39 55 -50 57 -13 125 18 106 48 -6 10 -14 9
-37 -3 -29 -15 -77 -12 -99 6 -6 4 -17 4 -25 -1z"/>
<path d="M453 541 c-11 -17 -8 -21 24 -36 62 -30 154 -4 137 38 -5 15 -8 15
-30 0 -31 -20 -80 -19 -103 1 -15 14 -18 13 -28 -3z"/>
<path d="M1015 520 c-14 -23 67 -68 115 -65 59 5 114 45 92 67 -9 9 -16 7 -31
-6 -32 -29 -88 -32 -121 -7 -32 23 -46 26 -55 11z"/>
<path d="M195 89 c-4 -6 -5 -12 -2 -15 2 -3 7 2 10 11 7 17 1 20 -8 4z"/>
</g>
</svg>
